<svg height="956.6875004768372" version="1.1" width="787.4166641235352" xmlns="http://www.w3.org/2000/svg" style="overflow: hidden; position: relative;" viewBox="0 0 787.4166641235352 956.6875004768372" preserveAspectRatio="meet"><desc>Created with Raphaël 2.1.0</desc><defs><path stroke-linecap="round" d="M5,0 0,2.5 5,5z" id="raphael-marker-block"></path><marker id="raphael-marker-endblock33" markerHeight="3" markerWidth="3" orient="auto" refX="1.5" refY="1.5"><use xlink:href="#raphael-marker-block" transform="rotate(180 1.5 1.5) scale(0.6,0.6)" stroke-width="1.6667" fill="black" stroke="none"></use></marker></defs><rect x="0" y="0" width="73.33333206176758" height="33.61666679382324" r="20" rx="20" ry="20" fill="#ffffff" stroke="#000000" style="" stroke-width="1" class="flowchart" id="st" transform="matrix(1,0,0,1,84.5833,44.8167)"></rect><text style="text-anchor: start; font: 12px Play;" x="10" y="16.80833339691162" text-anchor="start" font="normal" stroke="none" fill="#000000" id="stt" class="flowchartt" font-size="12px" font-family="Play" font-weight="normal" transform="matrix(1,0,0,1,84.5833,44.8167)" stroke-width="1"><tspan dy="3.9416651725769043">Handshake</tspan></text><rect x="0" y="0" width="135.33333587646484" height="33.61666679382324" r="0" rx="0" ry="0" fill="#ffffff" stroke="#000000" style="" stroke-width="1" class="flowchart" id="exhange_headers" transform="matrix(1,0,0,1,53.5833,173.25)"></rect><text style="text-anchor: start; font: 12px Play;" x="10" y="16.80833339691162" text-anchor="start" font="normal" stroke="none" fill="#000000" id="exhange_headerst" class="flowchartt" font-size="12px" font-family="Play" font-weight="normal" transform="matrix(1,0,0,1,53.5833,173.25)" stroke-width="1"><tspan dy="3.9416651725769043">Exchange latest headers</tspan></text><path style="font-family: Play; font-weight: normal;" fill="#ffffff" stroke="#000000" d="M34.37500047683716,17.18750023841858L0,34.37500047683716L68.75000095367432,68.75000095367432L137.50000190734863,34.37500047683716L68.75000095367432,0L0,34.37500047683716" stroke-width="1" font="normal" font-family="Play" font-weight="normal" id="same_header" class="flowchart" transform="matrix(1,0,0,1,52.5,284.1167)"></path><text style="text-anchor: start; font: 12px Play;" x="39.37500047683716" y="34.37500047683716" text-anchor="start" font="normal" stroke="none" fill="#000000" id="same_headert" class="flowchartt" font-size="12px" font-family="Play" font-weight="normal" transform="matrix(1,0,0,1,52.5,284.1167)" stroke-width="1"><tspan dy="3.941667079925537">Same header</tspan></text><rect x="0" y="0" width="71.33333206176758" height="33.61666679382324" r="20" rx="20" ry="20" fill="#ffffff" stroke="#000000" style="" stroke-width="1" class="flowchart" id="consensus" transform="matrix(1,0,0,1,325.5833,301.6833)"></rect><text style="text-anchor: start; font: 12px Play;" x="10" y="16.80833339691162" text-anchor="start" font="normal" stroke="none" fill="#000000" id="consensust" class="flowchartt" font-size="12px" font-family="Play" font-weight="normal" transform="matrix(1,0,0,1,325.5833,301.6833)" stroke-width="1"><tspan dy="3.9416651725769043">Consensus</tspan></text><path style="font-family: Play; font-weight: normal;" fill="#ffffff" stroke="#000000" d="M43.875,21.9375L0,43.875L87.75,87.75L175.5,43.875L87.75,0L0,43.875" stroke-width="1" font="normal" font-family="Play" font-weight="normal" id="in_longest" class="flowchart" transform="matrix(1,0,0,1,33.5,420.6167)"></path><text style="text-anchor: start; font: 12px Play;" x="48.875" y="43.875" text-anchor="start" font="normal" stroke="none" fill="#000000" id="in_longestt" class="flowchartt" font-size="12px" font-family="Play" font-weight="normal" transform="matrix(1,0,0,1,33.5,420.6167)" stroke-width="1"><tspan dy="-3.2583351135253906">Received header</tspan><tspan dy="14.399999999999999" x="48.875">is in longest chain</tspan></text><rect x="0" y="0" width="123.66666412353516" height="48.016666412353516" r="0" rx="0" ry="0" fill="#ffffff" stroke="#000000" style="" stroke-width="1" class="flowchart" id="send_after_received" transform="matrix(1,0,0,1,662.75,440.4833)"></rect><text style="text-anchor: start; font: 12px Play;" x="10" y="24.008333206176758" text-anchor="start" font="normal" stroke="none" fill="#000000" id="send_after_receivedt" class="flowchartt" font-size="12px" font-family="Play" font-weight="normal" transform="matrix(1,0,0,1,662.75,440.4833)" stroke-width="1"><tspan dy="-3.258334159851074">Send all headers </tspan><tspan dy="14.399999999999999" x="10">after the received one</tspan></text><path style="font-family: Play; font-weight: normal;" fill="#ffffff" stroke="#000000" d="M59.625,29.8125L0,59.625L119.25,119.25L238.5,59.625L119.25,0L0,59.625" stroke-width="1" font="normal" font-family="Play" font-weight="normal" id="other_sending_after_longest" class="flowchart" transform="matrix(1,0,0,1,2,560.3667)"></path><text style="text-anchor: start; font: 12px Play;" x="64.625" y="59.625" text-anchor="start" font="normal" stroke="none" fill="#000000" id="other_sending_after_longestt" class="flowchartt" font-size="12px" font-family="Play" font-weight="normal" transform="matrix(1,0,0,1,2,560.3667)" stroke-width="1"><tspan dy="-3.2583351135253906">Receiving blocks building</tspan><tspan dy="14.399999999999999" x="64.625">on top of our longest chain</tspan></text><rect x="0" y="0" width="153.3333282470703" height="33.61666679382324" r="0" rx="0" ry="0" fill="#ffffff" stroke="#000000" style="" stroke-width="1" class="flowchart" id="receive_after_longest" transform="matrix(1,0,0,1,459.4167,603.1833)"></rect><text style="text-anchor: start; font: 12px Play;" x="10" y="16.80833339691162" text-anchor="start" font="normal" stroke="none" fill="#000000" id="receive_after_longestt" class="flowchartt" font-size="12px" font-family="Play" font-weight="normal" transform="matrix(1,0,0,1,459.4167,603.1833)" stroke-width="1"><tspan dy="3.9416651725769043">Validate and save all blocks</tspan></text><path style="font-family: Play; font-weight: normal;" fill="#ffffff" stroke="#000000" d="M35.12500190734863,18.00624990463257L0,36.01249980926514L70.25000381469727,72.02499961853027L140.50000762939453,36.01249980926514L70.25000381469727,0L0,36.01249980926514" stroke-width="1" font="normal" font-family="Play" font-weight="normal" id="our_chain_longer" class="flowchart" transform="matrix(1,0,0,1,51,755.2292)"></path><text style="text-anchor: start; font: 12px Play;" x="40.12500190734863" y="36.01249980926514" text-anchor="start" font="normal" stroke="none" fill="#000000" id="our_chain_longert" class="flowchartt" font-size="12px" font-family="Play" font-weight="normal" transform="matrix(1,0,0,1,51,755.2292)" stroke-width="1"><tspan dy="-3.258334159851074">We have the</tspan><tspan dy="14.399999999999999" x="40.12500190734863">longest chain</tspan></text><rect x="0" y="0" width="93.33333587646484" height="33.61666679382324" r="0" rx="0" ry="0" fill="#ffffff" stroke="#000000" style="" stroke-width="1" class="flowchart" id="send_all" transform="matrix(1,0,0,1,316.0833,774.4333)"></rect><text style="text-anchor: start; font: 12px Play;" x="10" y="16.80833339691162" text-anchor="start" font="normal" stroke="none" fill="#000000" id="send_allt" class="flowchartt" font-size="12px" font-family="Play" font-weight="normal" transform="matrix(1,0,0,1,316.0833,774.4333)" stroke-width="1"><tspan dy="3.9416651725769043">Send all blocks</tspan></text><rect x="0" y="0" width="86.66666412353516" height="33.61666679382324" r="0" rx="0" ry="0" fill="#ffffff" stroke="#000000" style="" stroke-width="1" class="flowchart" id="receive_all" transform="matrix(1,0,0,1,77.9167,922.0708)"></rect><text style="text-anchor: start; font: 12px Play;" x="10" y="16.80833339691162" text-anchor="start" font="normal" stroke="none" fill="#000000" id="receive_allt" class="flowchartt" font-size="12px" font-family="Play" font-weight="normal" transform="matrix(1,0,0,1,77.9167,922.0708)" stroke-width="1"><tspan dy="3.9416651725769043">Get all blocks</tspan></text><path style="font-family: Play; font-weight: normal;" fill="none" stroke="#000000" d="M121.25,78.43333339691162C121.25,78.43333339691162,121.25,159.61224178990255,121.25,171.74151228221467" stroke-width="1" marker-end="url(#raphael-marker-endblock33)" font="normal" font-family="Play" font-weight="normal"></path><path style="font-family: Play; font-weight: normal;" fill="none" stroke="#000000" d="M121.25,206.86666679382324C121.25,206.86666679382324,121.25,271.82423479992167,121.25,282.6082060509341" stroke-width="1" marker-end="url(#raphael-marker-endblock33)" font="normal" font-family="Play" font-weight="normal"></path><path style="font-family: Play; font-weight: normal;" fill="none" stroke="#000000" d="M190.00000095367432,318.49166679382324C190.00000095367432,318.49166679382324,309.2892031501592,318.49166679382324,324.0838600631998,318.49166679382324" stroke-width="1" marker-end="url(#raphael-marker-endblock33)" font="normal" font-family="Play" font-weight="normal"></path><text style="text-anchor: start; font: 12px Play;" x="195.00000095367432" y="308.49166679382324" text-anchor="start" font="normal" stroke="none" fill="#000000" font-size="12px" font-family="Play" font-weight="normal" stroke-width="1"><tspan dy="4.30000638961792">yes</tspan></text><path style="font-family: Play; font-weight: normal;" fill="none" stroke="#000000" d="M121.25,352.8666672706604C121.25,352.8666672706604,121.25,409.11021065711975,121.25,419.1066216886975" stroke-width="1" marker-end="url(#raphael-marker-endblock33)" font="normal" font-family="Play" font-weight="normal"></path><text style="text-anchor: start; font: 12px Play;" x="126.25" y="362.8666672706604" text-anchor="start" font="normal" stroke="none" fill="#000000" font-size="12px" font-family="Play" font-weight="normal" stroke-width="1"><tspan dy="4.300006866455078">no</tspan></text><path style="font-family: Play; font-weight: normal;" fill="none" stroke="#000000" d="M209,464.4916672706604C209,464.4916672706604,632.7971586547792,464.4916672706604,661.2503370312597,464.4916672706604" stroke-width="1" marker-end="url(#raphael-marker-endblock33)" font="normal" font-family="Play" font-weight="normal"></path><text style="text-anchor: start; font: 12px Play;" x="214" y="454.4916672706604" text-anchor="start" font="normal" stroke="none" fill="#000000" font-size="12px" font-family="Play" font-weight="normal" stroke-width="1"><tspan dy="4.300006866455078">yes</tspan></text><path style="font-family: Play; font-weight: normal;" fill="none" stroke="#000000" d="M121.25,508.3666672706604C121.25,508.3666672706604,121.25,550.3405442237854,121.25,558.8664879798889" stroke-width="1" marker-end="url(#raphael-marker-endblock33)" font="normal" font-family="Play" font-weight="normal"></path><text style="text-anchor: start; font: 12px Play;" x="126.25" y="518.3666672706604" text-anchor="start" font="normal" stroke="none" fill="#000000" font-size="12px" font-family="Play" font-weight="normal" stroke-width="1"><tspan dy="4.300037384033203">no</tspan></text><path style="font-family: Play; font-weight: normal;" fill="none" stroke="#000000" d="M240.5,619.9916672706604C240.5,619.9916672706604,438.66171511966513,619.9916672706604,457.9166864618592,619.9916672706604" stroke-width="1" marker-end="url(#raphael-marker-endblock33)" font="normal" font-family="Play" font-weight="normal"></path><text style="text-anchor: start; font: 12px Play;" x="245.5" y="609.9916672706604" text-anchor="start" font="normal" stroke="none" fill="#000000" font-size="12px" font-family="Play" font-weight="normal" stroke-width="1"><tspan dy="4.300037384033203">yes</tspan></text><path style="font-family: Play; font-weight: normal;" fill="none" stroke="#000000" d="M121.25,679.6166672706604C121.25,679.6166672706604,121.25,743.129610582467,121.25,753.7357759206691" stroke-width="1" marker-end="url(#raphael-marker-endblock33)" font="normal" font-family="Play" font-weight="normal"></path><text style="text-anchor: start; font: 12px Play;" x="126.25" y="689.6166672706604" text-anchor="start" font="normal" stroke="none" fill="#000000" font-size="12px" font-family="Play" font-weight="normal" stroke-width="1"><tspan dy="4.300037384033203">no</tspan></text><path style="font-family: Play; font-weight: normal;" fill="none" stroke="#000000" d="M191.50000381469727,791.2416672706604C191.50000381469727,791.2416672706604,300.42751834874525,791.2416672706604,314.57533029506203,791.2416672706604" stroke-width="1" marker-end="url(#raphael-marker-endblock33)" font="normal" font-family="Play" font-weight="normal"></path><text style="text-anchor: start; font: 12px Play;" x="196.50000381469727" y="781.2416672706604" text-anchor="start" font="normal" stroke="none" fill="#000000" font-size="12px" font-family="Play" font-weight="normal" stroke-width="1"><tspan dy="4.300037384033203">yes</tspan></text><path style="font-family: Play; font-weight: normal;" fill="none" stroke="#000000" d="M121.25,827.2541670799255C121.25,827.2541670799255,121.25,908.4330754729165,121.25,920.5623459652286" stroke-width="1" marker-end="url(#raphael-marker-endblock33)" font="normal" font-family="Play" font-weight="normal"></path><text style="text-anchor: start; font: 12px Play;" x="126.25" y="837.2541670799255" text-anchor="start" font="normal" stroke="none" fill="#000000" font-size="12px" font-family="Play" font-weight="normal" stroke-width="1"><tspan dy="4.30002498626709">no</tspan></text></svg>
