<svg height="56" version="1.1" width="248" xmlns="http://www.w3.org/2000/svg" style="overflow: hidden; position: relative;">
<rect x="1" y="1" width="245" height="53" r="0" rx="2" ry="2" fill="#ffffff" stroke="#000000"/>
<rect x="16" y="16" width="22" height="6" r="0" rx="2" ry="2" fill="#000000"/>
<rect x="16" y="16" width="6" height="22" r="0" rx="2" ry="2" fill="#000000"/>
<rect x="32" y="16" width="6" height="22" r="0" rx="2" ry="2" fill="#000000"/>
<rect x="16" y="24" width="22" height="6" r="0" rx="2" ry="2" fill="#000000"/>
<rect x="24" y="32" width="6" height="6" r="0" rx="2" ry="2" fill="#000000"/>
<rect x="40" y="16" width="6" height="22" r="0" rx="2" ry="2" fill="#000000"/>
<rect x="56" y="16" width="6" height="22" r="0" rx="2" ry="2" fill="#000000"/>
<rect x="40" y="32" width="22" height="6" r="0" rx="2" ry="2" fill="#000000"/>
<rect x="48" y="16" width="6" height="14" r="0" rx="2" ry="2" fill="#000000"/>
<rect x="64" y="16" width="22" height="6" r="0" rx="2" ry="2" fill="#000000"/>
<rect x="72" y="16" width="6" height="22" r="0" rx="2" ry="2" fill="#000000"/>
<rect x="64" y="24" width="6" height="14" r="0" rx="2" ry="2" fill="#000000"/>
<rect x="80" y="24" width="6" height="14" r="0" rx="2" ry="2" fill="#000000"/>
<rect x="88" y="16" width="22" height="6" r="0" rx="2" ry="2" fill="#000000"/>
<rect x="88" y="32" width="22" height="6" r="0" rx="2" ry="2" fill="#000000"/>
<rect x="88" y="16" width="6" height="22" r="0" rx="2" ry="2" fill="#000000"/>
<rect x="104" y="16" width="6" height="22" r="0" rx="2" ry="2" fill="#000000"/>
<rect x="96" y="24" width="6" height="6" r="0" rx="2" ry="2" fill="#000000"/>
<rect x="112" y="16" width="6" height="22" r="0" rx="2" ry="2" fill="#000000"/>
<rect x="112" y="16" width="22" height="6" r="0" rx="2" ry="2" fill="#000000"/>
<rect x="120" y="16" width="6" height="14" r="0" rx="2" ry="2" fill="#000000"/>
<rect x="128" y="16" width="6" height="22" r="0" rx="2" ry="2" fill="#000000"/>
<rect x="120" y="32" width="6" height="6" r="0" rx="2" ry="2" fill="#000000"/>
<rect x="136" y="16" width="22" height="6" r="0" rx="2" ry="2" fill="#000000"/>
<rect x="136" y="16" width="6" height="22" r="0" rx="2" ry="2" fill="#000000"/>
<rect x="152" y="16" width="6" height="22" r="0" rx="2" ry="2" fill="#000000"/>
<rect x="136" y="24" width="22" height="6" r="0" rx="2" ry="2" fill="#000000"/>
<rect x="144" y="32" width="6" height="6" r="0" rx="2" ry="2" fill="#000000"/>
<rect x="160" y="16" width="22" height="6" r="0" rx="2" ry="2" fill="#000000"/>
<rect x="168" y="16" width="6" height="22" r="0" rx="2" ry="2" fill="#000000"/>
<rect x="160" y="24" width="6" height="14" r="0" rx="2" ry="2" fill="#000000"/>
<rect x="176" y="24" width="6" height="14" r="0" rx="2" ry="2" fill="#000000"/>
<rect x="184" y="16" width="22" height="6" r="0" rx="2" ry="2" fill="#000000"/>
<rect x="184" y="32" width="22" height="6" r="0" rx="2" ry="2" fill="#000000"/>
<rect x="184" y="16" width="6" height="22" r="0" rx="2" ry="2" fill="#000000"/>
<rect x="200" y="16" width="6" height="22" r="0" rx="2" ry="2" fill="#000000"/>
<rect x="192" y="24" width="6" height="6" r="0" rx="2" ry="2" fill="#000000"/>
<rect x="208" y="16" width="6" height="22" r="0" rx="2" ry="2" fill="#000000"/>
<rect x="224" y="16" width="6" height="22" r="0" rx="2" ry="2" fill="#000000"/>
<rect x="208" y="16" width="14" height="6" r="0" rx="2" ry="2" fill="#000000"/>
<rect x="216" y="16" width="6" height="22" r="0" rx="2" ry="2" fill="#000000"/>
<rect x="216" y="32" width="14" height="6" r="0" rx="2" ry="2" fill="#000000"/>
</svg>